PathFileType	4	(X/Y/Z)	C:/Users/opensim2020/Desktop/walking_exp_matlab/subject02_walking13_straight_03.trc																																																																																																																									
DataRate	CameraRate	NumFrames	NumMarkers	Units	OrigDataRate	OrigDataStartFrame	OrigNumFrames																																																																																																																					
100	100	7	41	mm	100	1424	129																																																																																																																					
Frame#	Time	LFHD			RFHD			LBHD			RBHD			C7			T10			CLAV			STRN			RBAK			LSHO			LUPA			LELB			LFRM			LWRA			LWRB			LFIN			RSHO			RUPA			RELB			RFRM			RWRA			RWRB			RFIN			LASI			RASI			LPSI			RPSI			LTHI			LKNE			LTIB			LANK			LHEE			LTOE			RTHI			RKNE			RTIB			RANK			RHEE			RTOE			*39			*40		
		X1	Y1	Z1	X2	Y2	Z2	X3	Y3	Z3	X4	Y4	Z4	X5	Y5	Z5	X6	Y6	Z6	X7	Y7	Z7	X8	Y8	Z8	X9	Y9	Z9	X10	Y10	Z10	X11	Y11	Z11	X12	Y12	Z12	X13	Y13	Z13	X14	Y14	Z14	X15	Y15	Z15	X16	Y16	Z16	X17	Y17	Z17	X18	Y18	Z18	X19	Y19	Z19	X20	Y20	Z20	X21	Y21	Z21	X22	Y22	Z22	X23	Y23	Z23	X24	Y24	Z24	X25	Y25	Z25	X26	Y26	Z26	X27	Y27	Z27	X28	Y28	Z28	X29	Y29	Z29	X30	Y30	Z30	X31	Y31	Z31	X32	Y32	Z32	X33	Y33	Z33	X34	Y34	Z34	X35	Y35	Z35	X36	Y36	Z36	X37	Y37	Z37	X38	Y38	Z38	X39	Y39	Z39	X40	Y40	Z40	X41	Y41	Z41
																																																																																																																												
113	1.12	791.32825	1762.00952	-998.3241	751.32318	1732.49475	-861.7074	679.81519	1672.9812	-1048.68555	629.85101	1640.63074	-917.17194	619.77612	1528.6344	-988.9953	577.54034	1253.03052	-990.1322	762.31055	1467.75208	-984.12683	820.14349	1296.8479	-971.26312	562.33313	1352.95178	-930.56281	709.92529	1508.96484	-1158.98914	683.99457	1316.04297	-1251.71082	669.01282	1175.9574	-1271.54541	675.03198	1041.97827	-1284.78577	719.91431	914.32465	-1242.43311	681.65924	917.95618	-1284.31287	695.82678	852.01392	-1280.43506	674.00098	1497.13477	-797.52161	655.50916	1308.19165	-710.81384	687.24561	1162.65588	-686.71423	752.79962	1060.08484	-671.6076	845.03107	962.26312	-691.47174	800.35065	938.55402	-664.74304	859.03961	896.13641	-659.5686	823.82648	1001.56439	-1100.78149	785.97632	971.59351	-850.25513	605.50275	1044.1532	-1051.17993	585.50311	1040.36414	-937.16449	834.59412	706.41925	-1193.49951	864.36084	506.91495	-1171.53992	833.65985	315.45041	-1178.95508	872.48462	91.89632	-1163.91565	845.47614	60.4273	-1110.52405	1027.05298	70.53482	-1180.08337	679.70825	663.79193	-832.25671	655.09039	459.13321	-894.29254	588.16705	282.34253	-905.83441	546.64948	97.33134	-963.92889	509.59607	46.85687	-1025.22546	692.57666	41.05305	-941.82135	659.65564	1807.82532	-940.25043	2845.25195	1034.25562	-3360.30981
114	1.13	804.34094	1759.97534	-997.1532	764.9184	1731.1311	-860.44891	692.88409	1670.90295	-1047.35828	642.31494	1638.5741	-915.96613	633.10486	1526.73486	-987.59949	590.62787	1251.30835	-990.23846	775.59906	1465.60596	-982.33069	833.04004	1294.63806	-969.17853	575.35468	1351.09131	-929.78564	723.82422	1506.81067	-1157.35254	695.08453	1314.09851	-1249.63782	677.64532	1174.2146	-1268.41089	678.72717	1040.3125	-1281.93555	717.54535	910.36584	-1239.15991	680.71893	916.16461	-1282.28186	691.58679	849.3963	-1277.8103	686.82959	1495.54077	-796.11426	669.45862	1306.88306	-708.72528	702.99207	1161.88135	-683.38202	771.67786	1060.97681	-668.53876	866.53033	966.10541	-688.90619	822.9679	941.05408	-661.9848	882.94	900.8208	-656.90497	837.82611	998.86096	-1099.37012	797.03058	969.45239	-848.36127	618.99207	1042.04321	-1051.88867	597.31177	1038.34094	-938.39661	848.85498	703.96271	-1191.60974	878.97192	504.62479	-1169.401	859.37524	311.38266	-1177.79114	912.40936	90.40118	-1164.11157	886.20166	57.19808	-1111.74707	1068.74963	78.052	-1177.30139	686.6864	662.69879	-832.11224	659.84064	458.05371	-894.32404	590.70227	282.43597	-906.13922	547.25018	97.70794	-964.41199	510.00436	47.42047	-1025.90625	692.86786	40.94543	-941.59363	672.76581	1805.98181	-939.21179	2845.93896	1034.24817	-3357.23999
115	1.14	817.43634	1757.79651	-996.18457	778.16461	1729.31494	-859.34698	706.02509	1668.52271	-1046.02905	656.12787	1636.98901	-914.35553	646.34399	1524.68262	-986.34198	603.81677	1249.33167	-990.43439	788.89044	1463.29114	-980.52765	845.86774	1292.19519	-967.06604	588.46936	1348.86719	-929.11456	737.79327	1504.58484	-1155.77454	706.20111	1312.05664	-1247.56787	686.3031	1172.5376	-1265.5282	682.94366	1039.01624	-1279.55627	715.97968	907.2121	-1236.36829	680.58588	914.63141	-1280.31824	687.84192	847.24298	-1275.3429	699.71472	1493.51038	-794.7619	682.71173	1304.98804	-706.81805	718.56671	1160.55371	-680.36304	790.17297	1061.86047	-665.67603	888.03357	970.15704	-686.1015	845.12982	943.57245	-659.25208	906.50024	905.40326	-654.15637	851.888	995.98419	-1098.14539	808.27454	967.27832	-846.75385	632.58289	1039.55347	-1052.58093	609.25433	1035.97852	-939.71234	862.38904	700.82336	-1189.57031	893.45422	502.25012	-1167.47668	884.75006	308.26999	-1176.99854	951.16541	90.31654	-1164.04797	925.83856	55.29075	-1112.18066	1108.62268	86.86892	-1174.37256	693.89899	661.50372	-831.9361	664.83563	457.35477	-894.42358	593.32056	282.47687	-906.55127	547.79199	98.33408	-964.97717	510.44678	48.10847	-1026.77112	692.7157	40.85286	-941.49353	685.89941	1803.77759	-938.33685	2845.22852	1034.08057	-3360.29663
116	1.15	830.55798	1755.34888	-994.58722	791.34796	1727.39575	-858.21472	719.13422	1665.99255	-1044.62195	669.21503	1634.19348	-913.30792	659.57751	1522.30725	-985.11786	617.09253	1247.16125	-990.65118	802.19104	1460.84119	-978.79681	858.89459	1289.68958	-965.00659	601.67682	1346.4823	-928.28564	751.43054	1502.21594	-1154.25891	717.37225	1310.0282	-1245.64893	695.19757	1170.88269	-1262.7135	687.60461	1037.91589	-1277.48132	715.01917	904.43829	-1233.75305	681.0387	913.51062	-1278.80444	684.66882	845.51532	-1272.93152	712.4223	1491.35632	-793.44434	696.63257	1303.38403	-704.80725	733.93555	1159.44385	-677.26019	808.36884	1062.64172	-662.79822	908.60657	973.94196	-683.61176	866.8573	946.07257	-656.55969	929.40155	909.966	-651.48999	866.01672	992.97571	-1097.04858	819.77521	965.20795	-845.38507	646.23676	1036.83435	-1053.22925	621.35632	1033.34827	-941.10547	875.19147	697.10925	-1187.81531	907.94562	499.80389	-1165.80383	909.81848	305.95261	-1176.23987	988.29553	91.65694	-1163.89807	963.94983	54.84796	-1112.38586	1146.3175	96.34804	-1170.95654	700.96643	660.31049	-831.52399	669.81177	456.35068	-894.24133	595.76123	282.64841	-906.94434	548.47223	99.02525	-965.59448	511.0394	49.21298	-1027.83594	692.75781	40.79139	-941.27814	699.03223	1801.68347	-937.24817	2845.27271	1034.30908	-3360.34546
117	1.16	843.48529	1752.953	-993.57007	804.68134	1725.18933	-857.29443	732.29529	1663.35657	-1043.24255	682.72064	1632.04968	-911.47479	672.7948	1519.97729	-983.75244	630.4469	1244.93677	-990.81427	815.59729	1458.36731	-977.20044	871.91724	1287.1156	-963.28137	614.7616	1344.07166	-927.89294	765.26025	1499.9458	-1152.82166	728.58472	1307.9502	-1243.74573	704.20135	1169.32837	-1260.12097	692.79785	1036.79602	-1275.25098	714.74432	902.00372	-1231.32263	682.45593	912.49774	-1277.10034	682.29529	844.26099	-1270.76611	725.18073	1489.06421	-792.2113	710.01678	1301.33557	-703.00079	748.91772	1158.08069	-674.41956	826.30829	1063.31189	-659.93665	929.11908	977.9187	-680.92261	888.09479	948.61365	-653.91644	951.76556	914.60919	-648.76154	880.24646	989.94147	-1095.96802	831.50574	963.11292	-844.28271	660.10205	1033.95569	-1053.82654	633.72327	1030.57751	-942.45166	887.40302	693.07416	-1186.4032	922.58868	497.2677	-1164.42566	934.26398	304.29999	-1175.6947	1023.35699	93.58942	-1163.03723	999.93219	54.91965	-1111.96509	1181.5968	105.52134	-1166.57507	708.52429	659.36414	-830.98145	675.04022	455.8287	-893.96851	598.36621	283.0387	-907.33673	549.08368	99.92483	-966.30206	511.62653	50.33979	-1028.71643	692.79321	40.70306	-941.08374	712.10834	1799.30872	-936.16736	2845.15527	1034.3573	-3360.23828
118	1.17	856.59393	1750.55981	-992.36627	817.84155	1722.87561	-856.16626	745.50909	1660.70898	-1041.94678	696.19611	1629.57727	-910.06976	686.20911	1517.66443	-982.39575	643.83569	1242.59485	-990.94617	828.9884	1455.80005	-975.68738	885.00336	1284.49939	-961.82007	627.55597	1341.74243	-927.6366	779.13177	1497.60657	-1151.52722	739.97711	1305.88525	-1241.9292	713.6355	1167.57056	-1257.24084	698.71948	1035.9834	-1273.36389	713.91132	899.52002	-1228.39465	684.67023	911.75812	-1275.69165	680.72357	843.40186	-1268.75781	737.97534	1486.60999	-791.04535	723.40662	1299.24829	-701.20251	763.80591	1156.32898	-671.69305	843.57568	1063.65955	-657.24957	948.81891	981.41064	-678.32019	908.62439	950.84967	-651.40027	973.33154	919.05084	-646.04596	894.59894	986.9339	-1094.88257	844.21918	961.29199	-842.94568	674.04364	1030.96411	-1054.35266	646.21362	1027.69543	-943.75366	898.85431	689.50775	-1186.06177	937.66687	494.83688	-1163.12244	957.81189	303.07507	-1175.24939	1055.90356	95.86005	-1161.66455	1033.02539	56.26152	-1111.15747	1213.8728	113.82832	-1161.81421	716.11835	658.52252	-830.29871	680.35291	455.17682	-893.42401	601.19708	283.63599	-907.64722	549.69104	101.05109	-967.06439	512.89685	51.77748	-1029.97546	692.85339	40.61378	-940.85315	725.05975	1796.8175	-935.25159	2845.88062	1034.24243	-3357.22095
119	1.18	869.69989	1748.20679	-991.2207	831.26495	1720.7738	-854.87012	758.72272	1658.02917	-1040.46423	709.07275	1626.85803	-908.68134	699.44446	1515.29492	-981.26758	657.2771	1240.25928	-990.94672	842.36914	1453.21411	-974.28357	898.15259	1281.93506	-960.52612	640.75861	1339.2572	-927.38916	792.78864	1495.1344	-1150.18604	751.46149	1303.88794	-1240.28992	723.19922	1166.13062	-1254.9585	704.91211	1034.79626	-1270.92358	715.06476	897.76544	-1226.25623	687.65356	911.30554	-1274.53931	680.03619	842.90704	-1266.96765	750.82672	1484.05542	-789.93707	736.95703	1296.99268	-699.61237	778.25507	1154.55249	-669.22131	860.34155	1063.9635	-654.79077	967.88257	984.81433	-675.76611	928.68268	953.05896	-648.83575	994.37103	923.40405	-643.37482	909.01367	984.07343	-1093.77466	856.63013	959.22681	-841.73505	688.19977	1028.0813	-1054.7915	659.04913	1024.76245	-944.8905	910.04791	686.74548	-1186.25745	953.48895	492.72125	-1161.81042	980.28027	302.20483	-1174.81409	1085.42188	98.07293	-1160.13464	1063.49084	57.07674	-1109.80225	1243.04919	120.53628	-1156.56055	724.04419	657.81293	-829.51385	686.28827	454.77686	-892.92438	604.28259	284.43365	-908.16315	550.3645	102.47926	-967.80792	513.66962	53.85106	-1031.24622	692.98584	40.49599	-940.5426	738.19348	1794.3363	-933.98395	2845.81274	1034.37439	-3357.31958
